<?xml version="1.0" encoding="UTF-8"?>
<svg id="Layer_2" data-name="Layer 2" xmlns="http://www.w3.org/2000/svg" viewBox="0 0 97.7 54.63">
  <defs>
    <style>
      .cls-1 {
        fill: #fff;
      }
    </style>
  </defs>
  <path class="cls-1" d="M34.85,54.63c-2.21,0-4-1.79-4-4V4c0-2.21,1.79-4,4-4h24.31c2.21,0,4,1.79,4,4s-1.79,4-4,4h-20.31v42.63c0,2.21-1.79,4-4,4Z"/>
  <path class="cls-1" d="M93.7,39.52h-27.24c-7.83,0-14.2-6.37-14.2-14.2v-.37c0-7.83,6.37-14.2,14.2-14.2h27.24c2.21,0,4,1.79,4,4v20.76c0,2.21-1.79,4-4,4ZM66.46,18.76c-3.42,0-6.2,2.78-6.2,6.2v.37c0,3.42,2.78,6.2,6.2,6.2h23.24v-12.76h-23.24Z"/>
  <path class="cls-1" d="M34.85,39.52H12.63c-6.96,0-12.63-5.66-12.63-12.63v-3.51c0-6.96,5.66-12.63,12.63-12.63h22.22c2.21,0,4,1.79,4,4v20.76c0,2.21-1.79,4-4,4ZM12.63,18.76c-2.55,0-4.63,2.08-4.63,4.63v3.51c0,2.55,2.08,4.63,4.63,4.63h18.22v-12.76H12.63Z"/>
</svg>